<?xml version="1.0" encoding="utf-8"?>
<!-- Generator: Adobe Illustrator 16.0.0, SVG Export Plug-In . SVG Version: 6.00 Build 0)  -->
<!DOCTYPE svg PUBLIC "-//W3C//DTD SVG 1.1//EN" "http://www.w3.org/Graphics/SVG/1.1/DTD/svg11.dtd">
<svg version="1.1" id="Layer_1" xmlns="http://www.w3.org/2000/svg" xmlns:xlink="http://www.w3.org/1999/xlink" x="0px" y="0px"
	 width="350px" height="250px" viewBox="0 0 350 250" enable-background="new 0 0 350 250" xml:space="preserve">
<g>
	<defs>
		<rect id="SVGID_1_" x="13.07" y="25" width="323.868" height="200"/>
	</defs>
	<clipPath id="SVGID_2_">
		<use xlink:href="#SVGID_1_"  overflow="visible"/>
	</clipPath>
	<path clip-path="url(#SVGID_2_)" fill="#FFFFFF" d="M322.818,67.465c-1.784,6.59-6.389,12.428-11.261,17.353
		c-5.267,5.31-11.863,10.599-19.354,12.118c-8.276,1.672-11.717-5.081-12.734-13.167c1.42,0.842,3.087,1.214,4.722,0.745
		c15.08-4.396,26.086-16.84,23.03-33.241c-2.468-13.248-15.004-22.605-27.418-14.505c-6.885,4.507-10.221,14.036-12.584,21.422
		c-2.89,9.009-3.572,18.917-2.218,28.25c0.893,6.056,3.242,12.185,7.179,16.923c-5.043,10.801-16.91,17.666-28.904,15.591
		c-7.685-1.325-12.036-7.604-14.329-14.982c14.95-2.194,28.994-17.398,30.565-31.619c1.115-10.228-6.812-20.992-17.086-22.435
		c-10.911-1.533-20.633,6.8-25.631,15.777c-5.185,9.319-5.371,20.879-4.174,31.225c0.328,2.797,0.856,5.654,1.592,8.48
		c-2.739-2.856-5.595-5.556-8.377-8.079c-5.457-4.924-11.065-9.678-16.245-14.905c3.782-9.372,7.297-19.906,2.136-29.396
		c-5.207-9.596-18.111-13.776-25.521-3.958c-6.254,8.294-3.732,19.497,0.767,27.969c1.644,3.078,3.577,5.935,5.706,8.635
		c-0.813,1.919-1.624,3.823-2.379,5.72c-2.703,6.71-5.564,13.397-9.328,19.585c-0.902,1.496-1.906,2.916-2.969,4.306
		c-0.023,0.031-0.813,0.9-0.981,1.109c-0.007,0.008-0.022,0.015-0.029,0.03c-1.414-2.389-2.657-7.349-3.097-10.599
		c-0.69-5.08-0.699-10.265-0.913-15.389c-0.43-10.444-1.749-21.087-8.399-29.568c-4.276-5.444-11.417-1.852-12.673,3.37
		c-0.321,1.025-0.41,2.193-0.187,3.503c1.949,10.845,1.013,22.672-0.922,34.022c-0.959,5.647-2.708,12.102-5.228,16.811
		c-0.677,1.25-1.459,2.433-2.285,3.585c-1.034,1.451-0.58,0.901-1.853,2.083c-1.808,1.674-2.387,1.928-4.514,2.269
		c-0.127,0.016-1.399-0.044-1.265,0.052c-0.312-0.089-0.633-0.179-0.938-0.297c-0.029-0.015-0.059-0.021-0.088-0.028
		c-0.074-0.061-0.179-0.128-0.335-0.231c-0.171-0.143-0.298-0.231-0.379-0.291c-0.276-0.313-0.552-0.632-0.804-0.952
		c-0.141-0.202-0.23-0.321-0.29-0.417c-0.262-0.455-0.499-0.93-0.729-1.399c-1.964-4.054-2.633-9.728-3.051-15.107
		c-0.809-10.435,0.493-21.012,0.544-31.523c0.045-9.401-14.572-10.755-14.624-1.278c-0.037,8.211-1.583,22.642-0.558,35.934
		c-4.485,1.688-8.777,3.771-12.951,6.069c0.246-3.882,0.506-7.765,0.736-11.655c0.7-11.648,0.811-23.475,2.075-35.079
		c-0.029,0-0.051,0.008-0.088,0.008c0.074-0.595,0.088-1.212,0.015-1.867v-0.016c-0.937-8.516-13.671-7.467-14.542,0.597
		c-1.54,14.154-1.681,28.584-2.538,42.784c-0.297,4.813-0.571,9.632-0.854,14.46c-9.44,6.025-18.604,12.132-27.031,19.562
		c-17.294,15.265-31.561,36.901-24.153,60.675c2.589,8.331,9.76,15.642,18.27,17.748c9.839,2.445,19.414-1.398,26.665-8.092
		c15.702-14.5,17.154-39.401,18.686-59.313c0.573-7.477,1.108-14.945,1.613-22.418c5.355-3.429,10.89-6.674,16.684-8.987
		c3.103,9.647,9.224,16.41,20.939,15.659c12.54-0.79,19.74-11.904,23.713-23.112c1.213,3.547,2.953,6.835,5.453,9.611
		c14.214,15.731,28.042-11.122,32.793-21.417c1.361-2.937,2.598-5.928,3.802-8.925c6.59,6.055,13.657,11.694,19.784,17.971
		c5.722,5.853,10.64,12.363,12.878,20.338c1.903,6.79-0.351,14.436-3.772,20.378c-3.409,5.942-8.459,11.15-14.943,11.961
		c-2.573,0.32-5.549-1.419-7.869-3.213c-2.329-1.808-3.324-3.666-3.911-5.697c-1.749-6.138-0.85-12.436,1.849-18.194
		c0.812-1.748,2.857-3.495,3.625-3.875c0.603-0.306,0.994-0.349,1.88-0.299c0.797,0.046,1.831,0.36,3.035,1.034
		c3.475,1.956,7.773,1.653,10.205-1.881c2.104-3.058,1.617-8.249-1.874-10.206c-7.816-4.381-15.97-4.955-23.415,0.521
		c-6.345,4.686-9.177,13.16-10.397,20.597c-2.744,16.685,7.817,36.173,26.6,35.815c19.003-0.355,31.53-20.15,34.005-37.141
		c0.856-5.829,0.135-11.341-1.635-16.535c15.925,10.31,37.691,4.176,49.791-9.913c2.016-2.344,3.741-4.917,5.155-7.654
		c7.163,1.598,14.809-0.536,21.234-3.921c12.974-6.835,26.785-20.403,30.722-34.93C339.101,63.344,325.305,58.301,322.818,67.465
		 M54.634,199.807c-3.608,6.024-11.053,12.288-18.03,10.162c-6.681-2.031-9.239-10.556-9.082-17.571
		c0.237-10.809,6.932-20.819,14.057-28.466c6.963-7.488,15.056-13.859,23.521-19.547c-0.669,9.29-1.481,18.557-2.648,27.765
		C61.254,181.493,59.551,191.603,54.634,199.807 M155.973,117.31c-0.06,0.036-0.103,0.081-0.157,0.125
		c-0.08,0.03-0.185,0.067-0.349,0.143C155.736,117.458,155.877,117.369,155.973,117.31 M178.055,57.7
		C178.114,57.646,178.107,57.661,178.055,57.7 M177.097,60.347c0.016-0.291,0.491-1.688,0.519-2.061
		c2.427,1.926,2.375,5.758,1.787,8.487c-0.132,0.603-0.298,1.198-0.453,1.8C177.72,65.925,176.976,63.159,177.097,60.347
		 M226.857,83.629c0.489-6.978,2.784-12.78,8.285-17.279c4.502-3.69,9.769-0.618,9.798,3.846c0.046,8.36-9.877,17.644-18.208,19.086
		C226.68,87.266,226.739,85.354,226.857,83.629 M280.763,64.044c0.975-3.542,2.225-7.238,3.955-10.488
		c0.828-1.501,1.81-2.916,2.882-4.248c-0.746,0.922,1.737-1.027,1.526-1.107c0.072-0.03,0.146-0.061,0.211-0.09
		c0.017,0,0.032,0,0.048-0.008c0.21,0.112,0.49,0.254,0.645,0.366c0.046,0.028,0.07,0.052,0.109,0.081
		c0.359,0.366,0.674,0.768,0.986,1.161c0.055,0.067,0.089,0.119,0.127,0.163c0.007,0.022,0.016,0.031,0.027,0.052
		c0.492,0.848,0.865,1.755,1.214,2.671c0.009,0.029,0.016,0.044,0.021,0.082c0.022,0.104,0.055,0.238,0.109,0.454
		c0.154,0.609,0.248,1.234,0.341,1.859c0.215,1.324,0.027,3.987-0.396,5.422c-0.706,2.425-1.903,4.113-3.184,5.34
		c-2.186,2.113-4.433,3.34-7.664,4.285c-0.787,0.23-1.525,0.543-2.208,0.929C279.82,68.246,280.273,65.821,280.763,64.044
		 M77.759,35.242c11.925,0,10.213,18.396-1.606,18.396C64.237,53.638,65.948,35.242,77.759,35.242 M225.729,25.87
		c4.954,3.027,9.847,6.092,14.221,9.931c2.247,1.986,3.259,4.976,1.405,7.661c-1.546,2.254-5.398,3.384-7.652,1.406
		c-4.374-3.836-9.276-6.909-14.224-9.93C213.412,31.227,219.701,22.196,225.729,25.87"/>
</g>
</svg>
